<?xml version="1.0" encoding="utf-8"?>
<svg xmlns="http://www.w3.org/2000/svg" data-name="Capa 1" id="Capa_1" viewBox="0 0 583.5337 140.7379">
  <defs>
    <style>
      .cls-1 {
        fill: #ffd100;
      }

      .cls-2 {
        fill: #00953e;
      }

      .cls-3 {
        fill: #c6c6c6;
      }

      .cls-4 {
        fill: url(#Degradado_sin_nombre);
      }

      .cls-5 {
        fill: #010616;
      }
    </style>
    <linearGradient data-name="Degradado sin nombre" gradientTransform="translate(0 827.1821) scale(1 -1)" gradientUnits="userSpaceOnUse" id="Degradado_sin_nombre" x1="516.2388" x2="499.0088" y1="763.6819" y2="735.7319">
      <stop offset="0" stop-color="#f1e752"/>
      <stop offset=".38" stop-color="#c5d862"/>
      <stop offset=".98" stop-color="#7abf7e"/>
    </linearGradient>
  </defs>
  <g data-name="Ilustración 10-2" id="Ilustracin_10-2">
    <g>
      <path class="cls-1" d="M26.64,87.4911c-1.02-4.49-1.35-8.97-1.08-13.34l-17.95,12.25c-5.17,3.52-4.43,7.15,1.6899,8.39l21.71,4.4c-1.9301-3.61-3.42-7.52-4.37-11.7"/>
      <path class="cls-1" d="M61.45,31.4011c3.91-.93,7.8101-1.35,11.65-1.29l-12.9301-21.31c-5.42-8.94-10.51-7.72-11.29,2.7l-1.97,26.12c4.34-2.8,9.22-4.94,14.54-6.22"/>
      <path class="cls-1" d="M109.07,47.7911l9.33-34.54c2.95-10.9-1.51-13.63-9.89-6.07l-26.54,23.92c10.6801,2.24,20.29,8.16,27.1,16.69"/>
      <path class="cls-1" d="M26.91,65.3711c2.24-8.68,6.9301-16.55,13.46-22.65l-22.66-6.26c-10.08-2.78-12.9399,1.59-6.35,9.71,0,0,15.55,19.2,15.55,19.2Z"/>
      <path class="cls-1" d="M112.68,101.0111c-2.48,4.17-5.59,7.96-9.26,11.21l5.1801,1.54c10.02,2.97,12.97-1.34,6.53-9.59l-2.45-3.15v-.01Z"/>
      <path class="cls-1" d="M37.54,108.4611l-3.25,18.44c-1.08,6.16,2.02,8.17,7.1899,4.65l15.17-10.33c-7.3-2.61-13.89-6.99-19.11-12.76"/>
      <path class="cls-1" d="M83.3,122.6511c-3.3101.79-6.62,1.2-9.89,1.28l6.78,9.21c3.7,5.04,7.3,4.17,8.3199-1.99l1.79-10.77c-2.24.92-4.5699,1.69-7,2.27"/>
      <path class="cls-2" d="M84.3801,93.6011c-2.15,0-3.91-.21-3.91-2.36v-12.76c0-3.78-1.63-6.78-5.67-6.78-4.3101,0-5.87,3.32-5.87,6.78v12.76c0,2.15-1.76,2.36-3.92,2.36s-3.98-.21-3.98-2.36v-12.76c0-3.78-1.63-6.78-5.67-6.78-4.37,0-5.87,3.32-5.87,6.78v12.76c0,2.15-1.76,2.36-3.91,2.36s-3.91-.21-3.91-2.36v-22.84c0-2.83,1.5-2.93,3.91-2.93,2.28,0,3.91.09,3.91,2.24v1.71c1.63-3,4.63-4.76,8.15-4.76,4.17,0,7.24,1.89,9.13,4.89,2.02-2.93,5.61-4.89,10.04-4.89,7.89,0,11.54,5.35,11.54,13.18v13.41c0,2.15-1.8199,2.36-3.98,2.36"/>
      <path class="cls-2" d="M98.08,65.4711c-2.15,0-3.92.08-3.92,2.24v23.53c0,2.15,1.01,2.36,3.92,2.36s3.91.07,3.91-2.73v-23.16c0-2.15-1.76-2.24-3.91-2.24"/>
      <path class="cls-2" d="M102.39,57.7511c0-3.27-1.23-4.01-4.3101-4.02h-.02c-3.08,0-4.3101.75-4.3101,4.02h0c0,3.27,1.23,4.01,4.3101,4.02h.02c3.08,0,4.3101-.75,4.3101-4.02h0Z"/>
      <path class="cls-2" d="M122.77,71.3011c-4.4399,0-6.98,3.92-6.98,8.29s2.48,8.28,6.98,8.28,7.11-3.72,7.11-8.28-2.61-8.29-7.11-8.29M107.9601,57.3711c0-2.15,1.76-2.24,3.91-2.24s3.91.08,3.91,2.24v11.91c1.96-3.19,5.28-4.63,8.6801-4.63,8.61,0,13.24,7.24,13.24,14.94s-4.5601,14.94-13.24,14.94c-3.85,0-7.05-1.76-8.9399-4.64v1.35c0,2.15-1.5,2.36-3.79,2.36s-3.78-.33-3.78-2.48v-33.75h.0099Z"/>
      <path class="cls-2" d="M156.19,87.8711c4.5,0,6.98-3.92,6.98-8.28s-2.54-8.29-6.98-8.29-7.11,3.72-7.11,8.29,2.61,8.28,7.11,8.28M171.0001,91.3011c0,2.15-1.5,2.3-3.78,2.3s-3.79-.21-3.79-2.36v-1.41c-1.89,3.07-5.09,4.7-8.9399,4.7-8.67,0-13.24-7.24-13.24-14.94s4.63-14.93,13.24-14.93c3.4,0,6.78,1.43,8.6801,4.63v-1.62c0-2.15,1.76-2.19,3.91-2.19s3.91.03,3.91,2.19v23.64l.0099-.01Z"/>
      <path class="cls-2" d="M190.7501,71.7011c-4.37,0-6.13,3.33-6.13,6.78v12.83c0,2.15-1.76,2.3-3.91,2.3s-3.91-.15-3.91-2.3v-23.58c0-2.25,1.6899-2.25,3.91-2.25s3.91,0,3.91,2.25v1.69c1.5699-2.87,4.37-4.76,8.41-4.76,7.3,0,11.48,5.61,11.48,13.44v13.22c0,2.15-1.76,2.3-3.91,2.3s-3.91-.15-3.91-2.3v-12.83c0-3.78-1.89-6.78-5.9399-6.78"/>
      <path class="cls-2" d="M253.6301,71.4311c-4.5,0-7.24,3.78-7.24,8.15s2.74,8.15,7.24,8.15,7.24-3.78,7.24-8.15-2.74-8.15-7.24-8.15M253.6301,94.5211c-8.8,0-14.9301-6.72-14.9301-14.93s6.13-14.93,14.9301-14.93,14.9399,6.71,14.9399,14.93-6.13,14.93-14.9399,14.93"/>
      <path class="cls-2" d="M234.1101,86.8611c-1.9399-2.14-2.38-1.95-3.65-1.1-1.26.85-2.8,2.08-5.59,2.08-5.02,0-7.62-3.91-7.62-8.27s2.6-8.27,7.62-8.27c2.8,0,4.34,1.21,5.6,2.08s1.7,1.04,3.64-1.1c1.9399-2.14,1.58-2.88.72-3.78-1.89-2.08-5.41-3.84-10.03-3.84-9.4399,0-15.37,6.58-15.37,14.91s5.9301,14.92,15.37,14.92c4.63,0,8.14-1.76,10.03-3.84,1.14-1.39,1.13-1.74-.73-3.78"/>
    </g>
  </g>
  <g>
    <path class="cls-5" d="M366.04,74.6511c0-4.78-3.49-7.63-9.3199-7.63h-4.6801c-1.2,0-2.17.97-2.17,2.17v23.44c0,.08.0601.14.14.14h3.28c.08,0,.14-.06.14-.14v-20.81c0-.77.62-1.39,1.39-1.39h1.91c3.8,0,5.73,1.47,5.73,4.37s-1.65,4.63-5.34,5.82l-.37.12,7.4301,11.97s.0699.07.12.07h3.86c.11,0,.1801-.12.12-.21l-6.64-10.61c2.86-1.51,4.4301-4.09,4.4301-7.3l-.0302-.01Z"/>
    <path class="cls-5" d="M382.8701,92.7711h11.4c.08,0,.14-.06.14-.14v-3.13c0-.08-.0601-.14-.14-.14h-7.85c-1.2,0-2.17-.97-2.17-2.17v-5.94h8.6899c.08,0,.14-.06.14-.14v-3.13c0-.08-.0601-.14-.14-.14h-8.6899v-5.24c0-1.2.97-2.17,2.17-2.17h7.85c.08,0,.14-.06.14-.14v-3.13c0-.08-.0601-.14-.14-.14h-11.4c-1.2,0-2.17.97-2.17,2.17v21.41c0,1.2.97,2.17,2.17,2.17Z"/>
    <path class="cls-5" d="M417.4801,67.0211h-7.3c-1.2,0-2.17.97-2.17,2.17v21.41c0,1.2.97,2.17,2.17,2.17h7.3c8.12,0,13.37-5.09,13.37-12.97s-5.25-12.78-13.37-12.78ZM427.19,79.9211c0,5.83-3.72,9.45-9.7,9.45h-3.74c-1.2,0-2.17-.97-2.17-2.17v-14.58c0-1.2.97-2.17,2.17-2.17h3.74c5.9,0,9.7,3.72,9.7,9.48v-.01Z"/>
    <path class="cls-5" d="M444.4,92.7711h3.28c.08,0,.14-.06.14-.14v-25.47c0-.08-.0601-.14-.14-.14h-1.24c-1.2,0-2.1801.97-2.1801,2.18v23.44c0,.08.0601.14.14.14v-.01Z"/>
    <path class="cls-5" d="M579.6001,74.6511c0-4.78-3.49-7.63-9.3199-7.63h-4.6801c-1.2,0-2.17.97-2.17,2.17v23.58h3.5601v-20.95c0-.77.62-1.39,1.39-1.39h1.91c3.8,0,5.73,1.47,5.73,4.37,0,2.02-.84,3.51-2.64,4.62-.74.46-1.63.85-2.7,1.19l-.37.12,1.58,2.55c1.86-.22,4.46-2.07,4.46-2.07,2.12-1.55,3.27-3.83,3.27-6.57l-.02.01Z"/>
    <path class="cls-5" d="M336.6201,88.1011c-.02-.1-.09-.18-.1801-.23-.09-.04-.2-.04-.29,0-3.03,1.49-5.99,1.65-7.12,1.65-5.67,0-9.79-4.04-9.79-9.61s4.12-9.65,9.79-9.65c1.13,0,4.09.16,7.12,1.65.09.05.2.05.29,0,.09-.04.16-.13.1801-.23l.59-2.48c.04-.15-.04-.31-.1801-.39-2.26-1.16-4.95-1.76-8-1.76-7.88,0-13.38,5.28-13.38,12.84s5.5,12.8,13.38,12.8c3.05,0,5.74-.59,8-1.76.14-.07.21-.23.1801-.39l-.59-2.48v.04Z"/>
    <path class="cls-5" d="M481.9801,88.1011c-.02-.1-.09-.18-.1801-.23-.09-.04-.2-.04-.29,0-3.03,1.49-5.99,1.65-7.12,1.65-5.67,0-9.79-4.04-9.79-9.61s4.12-9.65,9.79-9.65c1.13,0,4.09.16,7.12,1.65.09.04.2.05.29,0,.09-.04.16-.13.1801-.23l.59-2.48c.04-.16-.04-.31-.1801-.39-2.26-1.16-4.95-1.76-8-1.76-7.88,0-13.38,5.28-13.38,12.84s5.5,12.8,13.38,12.8c3.05,0,5.74-.59,8-1.76.14-.07.21-.23.1801-.39l-.59-2.48v.04Z"/>
    <path class="cls-5" d="M548.81,74.6511c0-4.78-3.49-7.63-9.3199-7.63h-4.6801c-1.2,0-2.17.97-2.17,2.17v23.44c0,.08.0601.14.14.14h3.28c.08,0,.14-.06.14-.14v-20.81c0-.77.62-1.39,1.39-1.39h1.91c3.8,0,5.73,1.47,5.73,4.37s-1.65,4.63-5.34,5.82l-.37.12,7.4301,11.97s.0699.07.12.07h3.86c.11,0,.1801-.12.12-.21l-6.64-10.61c2.86-1.51,4.4301-4.09,4.4301-7.3l-.0302-.01Z"/>
    <path class="cls-4" d="M499.0101,77.3311c-.33.33-.77.51-1.23.51h-4.47c-.12,0-.1899-.15-.1-.24l12.77-12.77c.2-.2.54-.2.74,0l12.77,12.77c.09.09.03.24-.1.24h-4.47c-.46,0-.9-.18-1.23-.51l-5.4399-5.44c-1.05-1.05-2.75-1.05-3.79,0l-5.4399,5.44h-.0103ZM499.0101,81.7511c-.33-.33-.77-.51-1.23-.51h-4.47c-.12,0-.1899.15-.1.24l12.77,12.77c.21.21.54.21.74,0l12.77-12.77c.09-.09.03-.24-.1-.24h-4.47c-.46,0-.9.18-1.23.51l-5.4399,5.44c-1.05,1.05-2.75,1.05-3.79,0l-5.4399-5.44h-.0103Z"/>
  </g>
  <g>
    <path class="cls-5" d="M323.08,48.6311c0,.55-.1,1.04-.3,1.48-.2.44-.48.8-.84,1.11s-.78.54-1.28.7c-.49.16-1.03.24-1.61.24-.4,0-.77-.04-1.12-.11s-.67-.16-.9399-.26c-.28-.1-.51-.21-.7-.31-.1899-.11-.3199-.2-.39-.27-.0699-.07-.12-.16-.15-.26s-.05-.22-.05-.37c0-.11,0-.2.02-.27s.03-.13.05-.17.05-.07.09-.09c.04-.02.0699-.02.11-.02.09,0,.22.06.38.17s.37.23.63.37.5699.25.9301.36c.36.11.78.17,1.26.17.39,0,.75-.05,1.08-.16s.61-.26.84-.46c.24-.2.42-.44.55-.73s.2-.62.2-.99-.08-.71-.25-.99-.39-.52-.66-.72c-.27-.21-.58-.4-.9301-.57-.35-.17-.7-.34-1.0601-.51-.36-.17-.72-.35-1.0601-.55-.35-.2-.65-.43-.9301-.7-.27-.27-.49-.58-.66-.94s-.25-.78-.25-1.28.09-.91.26-1.29.42-.7.73-.97c.3101-.27.6899-.47,1.13-.61.4399-.14.92-.21,1.4399-.21.26,0,.53.03.8.08s.52.12.76.2.45.17.64.27c.1899.1.3101.18.37.24.0601.06.1.11.12.13.02.03.03.07.04.11s.02.1.03.16v.23c0,.08,0,.16-.01.23s-.02.12-.04.17c-.02.05-.04.08-.0699.11s-.0601.04-.1.04c-.0699,0-.1801-.05-.3199-.14-.14-.09-.3199-.2-.54-.31-.22-.12-.48-.22-.78-.31s-.64-.14-1.03-.14-.71.05-.99.15-.52.24-.7.42c-.1899.18-.3199.38-.42.62s-.14.49-.14.75c0,.38.08.71.25.99s.39.52.66.73.59.4.9399.57.7.34,1.0699.51c.36.17.72.35,1.0699.55.35.2.66.43.9399.69.28.27.5.58.66.93.17.36.25.78.25,1.26l.0204-.03Z"/>
    <path class="cls-5" d="M333.9601,47.3611c0,.69-.09,1.33-.27,1.91s-.45,1.09-.8,1.52-.8.76-1.33,1c-.53.24-1.15.36-1.85.36s-1.27-.11-1.78-.32-.9301-.52-1.28-.92c-.34-.4-.6-.88-.77-1.45s-.25-1.21-.25-1.93.09-1.33.26-1.91c.1801-.58.4399-1.09.8-1.51.36-.43.8-.76,1.33-.99.53-.24,1.15-.36,1.86-.36s1.27.11,1.78.32.9301.52,1.27.92.6.88.77,1.45.26,1.21.26,1.92v-.01ZM332.7501,47.4711c0-.49-.05-.96-.14-1.41s-.26-.84-.48-1.19-.52-.61-.9-.82-.85-.3-1.41-.3c-.52,0-.97.09-1.34.28-.38.19-.6899.44-.9301.77s-.42.72-.53,1.17-.17.93-.17,1.45.05.97.14,1.43.26.85.48,1.19c.22.34.52.61.9.81s.85.3,1.41.3c.52,0,.97-.09,1.34-.28.38-.19.6899-.44.9301-.77s.42-.71.53-1.16.17-.93.17-1.46v-.01Z"/>
    <path class="cls-5" d="M349.69,51.8011s0,.07-.03.11c-.02.03-.05.06-.09.08-.04.02-.1.03-.17.05s-.16.02-.27.02c-.12,0-.21,0-.28-.02-.0699-.01-.13-.03-.1801-.05-.04-.02-.08-.04-.09-.08-.02-.03-.02-.07-.02-.11v-5.35c0-.41-.04-.78-.11-1.12-.0699-.34-.1899-.62-.35-.86s-.36-.43-.6-.56-.52-.2-.85-.2c-.4,0-.8101.16-1.22.47-.41.31-.87.77-1.36,1.38v6.23s0,.07-.03.11c-.02.03-.05.06-.09.08-.04.02-.1.03-.17.05-.0699.01-.16.02-.27.02s-.2,0-.27-.02c-.0699-.01-.13-.03-.1801-.05s-.08-.04-.09-.08c-.02-.03-.02-.07-.02-.11v-5.35c0-.41-.04-.78-.12-1.12-.08-.34-.1899-.62-.35-.86s-.36-.43-.6-.56-.52-.2-.85-.2c-.4,0-.8101.16-1.22.47-.41.31-.86.77-1.35,1.38v6.23s0,.07-.03.11c-.02.03-.05.06-.09.08-.04.02-.1.03-.17.05-.0699.01-.17.02-.28.02s-.2,0-.27-.02c-.0699-.01-.13-.03-.1801-.05-.04-.02-.08-.04-.09-.08-.02-.03-.02-.07-.02-.11v-8.69s0-.07.02-.11.05-.06.09-.08c.04-.02.1-.04.17-.05.0699,0,.15-.01.26-.01s.2,0,.27.01c.0699,0,.12.03.16.05.04.02.0699.05.08.08s.02.07.02.11v1.23c.5-.56.97-.96,1.42-1.21s.89-.37,1.33-.37c.36,0,.6899.04.97.13s.54.21.75.36c.22.16.4.34.5601.56.15.22.28.46.37.72.3-.33.58-.61.85-.84.27-.23.52-.41.76-.55s.47-.24.7-.3c.22-.06.4399-.09.66-.09.54,0,1,.1,1.38.29.37.19.67.45.9.78s.39.71.49,1.14c.1.44.15.9.15,1.38v5.48Z"/>
    <path class="cls-5" d="M361.33,47.3611c0,.69-.09,1.33-.27,1.91s-.45,1.09-.8,1.52-.8.76-1.33,1c-.53.24-1.15.36-1.85.36s-1.27-.11-1.78-.32-.9301-.52-1.28-.92c-.34-.4-.6-.88-.77-1.45s-.25-1.21-.25-1.93.09-1.33.26-1.91c.1801-.58.4399-1.09.8-1.51.36-.43.8-.76,1.33-.99.53-.24,1.15-.36,1.86-.36s1.27.11,1.78.32.9301.52,1.27.92.6.88.77,1.45.26,1.21.26,1.92v-.01ZM360.1201,47.4711c0-.49-.05-.96-.14-1.41s-.26-.84-.48-1.19-.52-.61-.9-.82-.85-.3-1.41-.3c-.52,0-.97.09-1.34.28-.38.19-.6899.44-.9301.77s-.42.72-.53,1.17-.17.93-.17,1.45.05.97.14,1.43.26.85.48,1.19c.22.34.52.61.9.81s.85.3,1.41.3c.52,0,.97-.09,1.34-.28.38-.19.6899-.44.9301-.77s.42-.71.53-1.16.17-.93.17-1.46v-.01Z"/>
    <path class="cls-5" d="M369.79,49.4811c0,.42-.08.79-.23,1.12s-.37.61-.66.84c-.28.23-.63.41-1.02.53-.4.12-.84.18-1.3101.18-.3,0-.59-.02-.85-.07-.27-.05-.51-.11-.73-.18s-.4-.15-.55-.24-.26-.16-.33-.22-.12-.14-.15-.24-.05-.22-.05-.38c0-.08,0-.16.02-.22s.03-.12.05-.16.04-.08.08-.1.0699-.03.11-.03c.0699,0,.17.04.3101.13.13.09.3.19.5.29.2.11.4399.2.72.29.28.09.6.13.96.13.29,0,.5601-.03.8101-.1.24-.06.45-.16.63-.29s.3199-.29.42-.49c.1-.2.15-.44.15-.71s-.0601-.5-.1899-.68c-.13-.19-.3-.35-.5-.48s-.4399-.26-.71-.36c-.27-.11-.54-.21-.8199-.33-.28-.11-.55-.24-.8199-.37-.27-.13-.5-.3-.71-.49-.21-.19-.38-.42-.5-.69s-.1899-.59-.1899-.97c0-.3.0601-.6.17-.89s.29-.55.53-.78.55-.42.92-.56.8199-.21,1.33-.21c.22,0,.4301.02.65.05.21.03.41.08.59.14.1801.06.33.12.46.19s.23.13.29.18c.0699.05.11.09.13.13s.04.07.05.11c0,.04.02.09.02.14v.2c0,.08,0,.15-.01.21s-.02.11-.04.16c-.02.04-.04.08-.0699.1-.03.02-.0601.03-.1.03-.05,0-.13-.04-.23-.11s-.24-.15-.4-.23c-.17-.08-.37-.16-.6-.23s-.5-.11-.8-.11-.5601.03-.79.11c-.23.07-.41.17-.5601.3-.15.13-.26.28-.33.45s-.11.36-.11.57c0,.28.0601.52.1899.71.13.19.3.36.51.5s.45.27.72.37c.27.11.54.22.8199.33.28.11.55.23.8199.36.27.13.51.29.72.48s.38.41.51.67c.13.26.1899.57.1899.94l-.0201-.02Z"/>
    <path class="cls-5" d="M385.8801,47.3211c0,.74-.08,1.41-.24,2.01s-.4,1.1-.72,1.52-.71.74-1.1801.96c-.47.23-1,.34-1.6.34-.26,0-.5-.03-.72-.08s-.4399-.14-.66-.25c-.21-.12-.4301-.26-.64-.43s-.4399-.38-.6801-.62v4.48s0,.07-.03.11c-.02.03-.05.06-.09.08-.04.02-.1.04-.17.05-.0699,0-.17.01-.28.01s-.2,0-.27-.01c-.0699,0-.13-.03-.1801-.05-.04-.02-.08-.05-.09-.08-.02-.03-.02-.07-.02-.11v-12.13s0-.08.02-.12.04-.06.09-.08.1-.03.16-.04c.0699,0,.15-.01.24-.01s.1801,0,.24.01c.0601,0,.12.02.16.04.04.02.08.04.1.08.02.03.03.07.03.12v1.26c.27-.28.52-.51.77-.71.24-.2.49-.37.73-.5s.49-.23.75-.3.53-.1.8199-.1c.63,0,1.16.12,1.6.36s.8.57,1.08.98c.28.42.48.9.6,1.45.12.55.1899,1.14.1899,1.77l-.0096-.01ZM384.68,47.5111c0-.49-.04-.95-.12-1.41-.08-.45-.21-.85-.39-1.2s-.4301-.63-.73-.84c-.3-.21-.6899-.32-1.15-.32-.23,0-.46.03-.6801.1-.22.06-.45.17-.6801.32s-.47.34-.72.57-.51.52-.79.87v3.78c.48.58.9399,1.03,1.38,1.34.4399.31.9.47,1.38.47.4399,0,.8199-.11,1.14-.32.3199-.21.5699-.5.77-.84.2-.35.34-.74.4399-1.18.09-.44.14-.88.14-1.32l.0101-.02Z"/>
    <path class="cls-5" d="M395.39,51.8011c0,.06-.02.11-.0601.15s-.1.06-.16.08c-.0699.02-.16.02-.27.02s-.2,0-.28-.02c-.08-.02-.14-.04-.1801-.08s-.0601-.08-.0601-.15v-.97c-.39.42-.8199.75-1.29.98s-.96.35-1.46.35c-.45,0-.86-.06-1.22-.18s-.67-.29-.92-.51-.4399-.49-.58-.8c-.13-.31-.2-.67-.2-1.06,0-.48.1-.9.3-1.25s.48-.65.84-.89c.37-.24.8-.41,1.3199-.53.51-.12,1.08-.18,1.71-.18h1.38v-.75c0-.37-.04-.7-.12-.98-.08-.28-.2-.52-.37-.72-.17-.19-.4-.34-.67-.43-.28-.1-.61-.14-1.01-.14s-.73.05-1.04.14-.58.2-.8101.31c-.23.12-.42.22-.5699.31s-.26.14-.3199.14c-.04,0-.0699,0-.11-.02s-.0601-.04-.08-.07c-.02-.03-.04-.08-.05-.13s-.01-.12-.01-.2c0-.13,0-.24.03-.32s.0699-.16.15-.24.22-.17.4301-.28c.2-.11.4399-.21.71-.3.27-.09.55-.17.86-.23.3101-.06.61-.09.92-.09.6,0,1.1.07,1.51.22.41.14.74.35.99.62.25.27.4301.6.54.99s.16.84.16,1.34v5.87h-.0099ZM394.2401,47.7011h-1.58c-.46,0-.86.04-1.21.12s-.63.2-.86.37-.4.35-.51.58c-.11.22-.17.48-.17.77,0,.5.16.9.48,1.19.3199.3.76.45,1.34.45.45,0,.88-.12,1.27-.35.39-.23.8101-.59,1.25-1.08v-2.05h-.01Z"/>
    <path class="cls-5" d="M404.16,43.5511v.24c0,.06-.02.12-.03.16-.02.04-.04.07-.0601.1-.02.02-.05.03-.09.03-.0601,0-.12-.01-.2-.04s-.17-.06-.27-.09-.21-.06-.34-.09c-.12-.03-.26-.04-.4-.04-.17,0-.34.04-.51.11s-.34.19-.52.36c-.1801.16-.37.38-.58.65-.2.27-.42.6-.67.99v5.87s0,.07-.03.11c-.02.03-.05.06-.09.08-.04.02-.1.03-.17.05-.0699.01-.17.02-.28.02s-.2,0-.27-.02c-.0699-.01-.13-.03-.1801-.05-.04-.02-.08-.04-.09-.08-.02-.03-.02-.07-.02-.11v-8.69s0-.07.02-.11.05-.06.09-.08c.04-.02.1-.04.17-.05.0699,0,.15-.01.26-.01s.2,0,.27.01c.0699,0,.12.03.16.05.04.02.0699.05.08.08s.02.07.02.11v1.37c.25-.37.48-.66.6899-.88s.41-.4.6-.52c.1899-.12.38-.21.5601-.25s.37-.07.5601-.07c.08,0,.1801,0,.29.01.11,0,.23.03.35.05.12.03.24.06.34.09.1.04.17.07.21.1.04.03.0601.05.08.08.01.02.02.05.03.09,0,.04.02.08.02.14v.24-.01Z"/>
    <path class="cls-5" d="M411.0901,51.2811c0,.13-.01.24-.03.33-.02.08-.0601.15-.11.2-.05.05-.12.09-.21.13s-.2.08-.3199.11-.25.05-.38.07-.27.02-.39.02c-.4301,0-.79-.06-1.09-.17-.3-.12-.55-.29-.74-.52-.1899-.23-.33-.53-.42-.89-.09-.36-.13-.78-.13-1.27v-5.4h-1.3c-.09,0-.16-.04-.21-.12-.05-.08-.08-.2-.08-.36,0-.08,0-.15.02-.22s.03-.11.0601-.15.0601-.07.09-.09.08-.03.12-.03h1.3v-2.13s0-.07.02-.11c.02-.03.05-.06.09-.08.04-.02.1-.04.1801-.05.0699,0,.16-.01.27-.01.12,0,.21,0,.28.01.0699,0,.13.03.17.05.04.02.0699.05.09.08s.03.07.03.11v2.13h2.4s.08,0,.12.03c.04.02.0699.05.09.09s.04.09.0601.15c.01.06.02.13.02.22,0,.16-.03.28-.08.36-.05.08-.12.12-.21.12h-2.4v5.25c0,.66.09,1.16.28,1.51.1899.35.53.52,1.03.52.15,0,.29-.02.42-.05.12-.03.24-.07.33-.11.1-.04.1801-.07.24-.11.0699-.03.13-.05.1801-.05.03,0,.0601,0,.09.02.03.01.05.04.0601.07s.03.08.04.13c0,.05.01.12.01.21h.0094Z"/>
    <path class="cls-5" d="M421.04,47.0111c0,.23-.0601.39-.1801.48s-.24.13-.36.13h-5.92c0,.54.05,1.02.16,1.46s.28.81.52,1.12.5601.55.95.71.87.25,1.4399.25c.4,0,.76-.03,1.08-.11.3199-.07.6-.15.83-.24s.4301-.16.58-.24c.15-.07.26-.11.3199-.11.04,0,.0699,0,.11.03.03.02.0601.05.08.09.02.04.03.09.04.16,0,.06.01.14.01.24v.13c0,.04-.01.08-.02.12,0,.03-.02.07-.04.1s-.04.06-.08.1c-.03.03-.13.09-.3.17s-.38.16-.65.24c-.27.08-.58.15-.9399.22s-.74.1-1.15.1c-.67,0-1.27-.1-1.79-.3-.52-.2-.95-.5-1.3101-.89s-.62-.88-.8-1.46-.27-1.26-.27-2.03.09-1.4.28-1.98c.1899-.58.46-1.08.8101-1.48.35-.41.78-.72,1.27-.93.5-.21,1.05-.32,1.66-.32.65,0,1.21.11,1.67.33s.84.51,1.14.88c.3.37.52.8.65,1.28s.21,1,.21,1.54v.23l.0004-.02ZM419.8601,46.6711c.02-.92-.1899-1.64-.63-2.16-.4399-.52-1.08-.78-1.9301-.78-.4399,0-.8199.08-1.15.24-.33.16-.61.38-.84.65s-.4.58-.52.94-.1899.72-.21,1.11h5.28Z"/>
    <path class="cls-5" d="M436.7,51.8011s0,.08-.02.12-.04.06-.09.08c-.04.02-.09.03-.16.04-.0601,0-.14.01-.24.01s-.1899,0-.25-.01c-.0699,0-.12-.02-.16-.04-.04-.02-.0699-.04-.1-.08-.02-.03-.03-.07-.03-.12v-1.25c-.46.5-.9399.89-1.4301,1.18-.49.28-1.03.43-1.61.43-.63,0-1.16-.12-1.6-.36s-.8-.57-1.08-.99c-.28-.42-.48-.9-.61-1.46s-.1899-1.15-.1899-1.78c0-.74.08-1.4.24-1.99s.4-1.1.71-1.51c.3101-.42.7-.74,1.16-.96.46-.22.99-.34,1.6-.34.52,0,1,.12,1.4399.35.4399.23.86.58,1.29,1.03v-5.23s0-.07.02-.11c.02-.03.05-.06.09-.08s.1-.03.1801-.05c.0699-.01.16-.02.27-.02.12,0,.21,0,.28.02.0699.01.13.03.17.05.04.02.0699.04.09.08.02.03.03.07.03.11v12.89-.01ZM435.55,45.5311c-.48-.58-.9399-1.03-1.39-1.33-.4399-.31-.91-.46-1.4-.46-.4399,0-.8199.11-1.13.32s-.5699.49-.77.84c-.2.35-.34.74-.4301,1.17s-.13.88-.13,1.32c0,.48.04.95.12,1.4.08.45.21.86.39,1.21.1899.36.4301.64.74.85.3101.21.6899.32,1.15.32.23,0,.45-.03.67-.1s.4399-.17.67-.32.47-.34.72-.57.51-.52.79-.87v-3.79.01Z"/>
    <path class="cls-5" d="M447.77,47.0111c0,.23-.0601.39-.1801.48s-.24.13-.36.13h-5.92c0,.54.05,1.02.16,1.46s.28.81.52,1.12.5601.55.95.71.87.25,1.4399.25c.4,0,.76-.03,1.08-.11.3199-.07.6-.15.83-.24s.4301-.16.58-.24c.15-.07.26-.11.3199-.11.04,0,.0699,0,.11.03.03.02.0601.05.08.09.02.04.03.09.04.16,0,.06.01.14.01.24v.13c0,.04-.01.08-.02.12,0,.03-.02.07-.04.1s-.04.06-.08.1c-.03.03-.13.09-.3.17s-.38.16-.65.24c-.27.08-.58.15-.9399.22s-.74.1-1.15.1c-.67,0-1.27-.1-1.79-.3-.52-.2-.95-.5-1.3101-.89s-.62-.88-.8-1.46-.27-1.26-.27-2.03.09-1.4.28-1.98c.1899-.58.46-1.08.8101-1.48.35-.41.78-.72,1.27-.93.5-.21,1.05-.32,1.66-.32.65,0,1.21.11,1.67.33s.84.51,1.14.88c.3.37.52.8.65,1.28s.21,1,.21,1.54v.23l.0004-.02ZM446.5901,46.6711c.02-.92-.1899-1.64-.63-2.16-.4399-.52-1.08-.78-1.9301-.78-.4399,0-.8199.08-1.15.24-.33.16-.61.38-.84.65s-.4.58-.52.94-.1899.72-.21,1.11h5.28Z"/>
  </g>
  <path class="cls-3" d="M291.78,136.7511c-.16,0-.29-.13-.29-.29V4.3011c0-.16.13-.29.29-.29s.29.13.29.29v132.15c0,.16-.13.29-.29.29v.01Z"/>
</svg>